<?xml version="1.0" ?><svg style="enable-background:new 0 0 48 48;" version="1.1" viewBox="0 0 48 48" xml:space="preserve" xmlns="http://www.w3.org/2000/svg" xmlns:xlink="http://www.w3.org/1999/xlink"><g id="Icons"><g id="Icons_15_"><g><path d="M20.6277,23.719v4.2091c0,0.9992,0.8118,1.811,1.811,1.811h7.4316     c1.3863,0,2.498,1.1241,2.498,2.498c0,1.3864-1.1117,2.498-2.498,2.498h-7.4316c-3.7469,0-6.807-3.0475-6.807-6.807V21.221     v-5.4581c0-1.3864,1.1241-2.498,2.498-2.498c1.3864,0,2.498,1.1116,2.498,2.498v2.9601h9.2426c1.3864,0,2.498,1.1241,2.498,2.498     c0,1.3864-1.1116,2.498-2.498,2.498H20.6277L20.6277,23.719z" style="fill:#4AA0EC;"/></g></g></g></svg>